<svg width="88" height="26" viewBox="0 0 88 26" fill="none" xmlns="http://www.w3.org/2000/svg">
<circle cx="13" cy="13" r="13" fill="#F4F4F4"/>
<path d="M40.7328 17.6324H45.6387V20H37.7466V5.11166H40.7328V17.6324ZM52.7839 20.192C51.6463 20.192 50.6225 19.9431 49.7124 19.4454C48.8023 18.9335 48.0842 18.2154 47.5581 17.2911C47.0462 16.3668 46.7902 15.3003 46.7902 14.0916C46.7902 12.8829 47.0533 11.8164 47.5794 10.8921C48.1198 9.96779 48.8521 9.25679 49.7764 8.75909C50.7007 8.24717 51.7317 7.99121 52.8693 7.99121C54.0069 7.99121 55.0378 8.24717 55.9621 8.75909C56.8864 9.25679 57.6116 9.96779 58.1378 10.8921C58.6781 11.8164 58.9483 12.8829 58.9483 14.0916C58.9483 15.3003 58.671 16.3668 58.1164 17.2911C57.5761 18.2154 56.8366 18.9335 55.8981 19.4454C54.9738 19.9431 53.9358 20.192 52.7839 20.192ZM52.7839 17.5897C53.3243 17.5897 53.8291 17.4617 54.2984 17.2058C54.7818 16.9356 55.1658 16.5374 55.4502 16.0113C55.7346 15.4851 55.8768 14.8452 55.8768 14.0916C55.8768 12.9682 55.5782 12.1079 54.9809 11.5107C54.3979 10.8992 53.6798 10.5935 52.8266 10.5935C51.9734 10.5935 51.2553 10.8992 50.6723 11.5107C50.1035 12.1079 49.8191 12.9682 49.8191 14.0916C49.8191 15.215 50.0964 16.0824 50.6509 16.6938C51.2197 17.2911 51.9307 17.5897 52.7839 17.5897ZM65.7674 7.99121C66.6491 7.99121 67.424 8.16896 68.0924 8.52446C68.7607 8.86574 69.2869 9.31367 69.6708 9.86825V8.18318H72.6783V20.0853C72.6783 21.1803 72.4579 22.1543 72.0171 23.0075C71.5763 23.875 70.9151 24.5575 70.0334 25.0552C69.1518 25.5671 68.0853 25.8231 66.8339 25.8231C65.156 25.8231 63.7766 25.432 62.6959 24.6499C61.6294 23.8678 61.025 22.8013 60.8828 21.4504H63.8477C64.0041 21.9908 64.3383 22.4174 64.8502 22.7302C65.3764 23.0573 66.0092 23.2208 66.7486 23.2208C67.616 23.2208 68.3199 22.9578 68.8603 22.4316C69.4006 21.9197 69.6708 21.1376 69.6708 20.0853V18.2509C69.2869 18.8055 68.7536 19.2677 68.0711 19.6374C67.4027 20.0071 66.6348 20.192 65.7674 20.192C64.772 20.192 63.8619 19.936 63.0372 19.4241C62.2124 18.9122 61.5583 18.1941 61.0748 17.2698C60.6056 16.3312 60.3709 15.2576 60.3709 14.0489C60.3709 12.8544 60.6056 11.7951 61.0748 10.8708C61.5583 9.94646 62.2053 9.23546 63.0158 8.73776C63.8406 8.24006 64.7578 7.99121 65.7674 7.99121ZM69.6708 14.0916C69.6708 13.3664 69.5286 12.7478 69.2442 12.2359C68.9598 11.7097 68.5759 11.3116 68.0924 11.0414C67.6089 10.757 67.0899 10.6148 66.5353 10.6148C65.9807 10.6148 65.4688 10.7499 64.9995 11.0201C64.5303 11.2902 64.1463 11.6884 63.8477 12.2145C63.5633 12.7265 63.4211 13.3379 63.4211 14.0489C63.4211 14.7599 63.5633 15.3856 63.8477 15.926C64.1463 16.4521 64.5303 16.8574 64.9995 17.1418C65.483 17.4262 65.9949 17.5684 66.5353 17.5684C67.0899 17.5684 67.6089 17.4333 68.0924 17.1631C68.5759 16.8787 68.9598 16.4805 69.2442 15.9686C69.5286 15.4425 69.6708 14.8168 69.6708 14.0916ZM80.8421 20.192C79.7045 20.192 78.6806 19.9431 77.7705 19.4454C76.8605 18.9335 76.1423 18.2154 75.6162 17.2911C75.1043 16.3668 74.8483 15.3003 74.8483 14.0916C74.8483 12.8829 75.1114 11.8164 75.6375 10.8921C76.1779 9.96779 76.9102 9.25679 77.8345 8.75909C78.7588 8.24717 79.7898 7.99121 80.9274 7.99121C82.065 7.99121 83.0959 8.24717 84.0202 8.75909C84.9445 9.25679 85.6697 9.96779 86.1959 10.8921C86.7362 11.8164 87.0064 12.8829 87.0064 14.0916C87.0064 15.3003 86.7291 16.3668 86.1746 17.2911C85.6342 18.2154 84.8948 18.9335 83.9562 19.4454C83.0319 19.9431 81.9939 20.192 80.8421 20.192ZM80.8421 17.5897C81.3824 17.5897 81.8872 17.4617 82.3565 17.2058C82.84 16.9356 83.2239 16.5374 83.5083 16.0113C83.7927 15.4851 83.9349 14.8452 83.9349 14.0916C83.9349 12.9682 83.6363 12.1079 83.039 11.5107C82.456 10.8992 81.7379 10.5935 80.8847 10.5935C80.0315 10.5935 79.3134 10.8992 78.7304 11.5107C78.1616 12.1079 77.8772 12.9682 77.8772 14.0916C77.8772 15.215 78.1545 16.0824 78.7091 16.6938C79.2779 17.2911 79.9889 17.5897 80.8421 17.5897Z" fill="white"/>
</svg>
